<svg width="928" height="1040" viewBox="0 0 928 1040" fill="none" xmlns="http://www.w3.org/2000/svg">
<path d="M0 227C0 182.817 35.8172 147 80 147H839C883.183 147 919 182.817 919 227V800C919 844.183 883.183 880 839 880H80C35.8172 880 0 844.183 0 800V227Z" fill="#417C81"/>
<ellipse cx="467.222" cy="513.258" rx="110.742" ry="95.0259" transform="rotate(-20 467.222 513.258)" fill="#F1F1F1"/>
<rect width="46.3152" height="298.227" transform="matrix(0.6792 -0.733953 0.798069 0.602566 325.293 442.385)" fill="#F1F1F1"/>
<path d="M33.8765 299.978L123.915 229.526L420.394 385.58L308.047 506.984L33.8765 299.978Z" fill="#F1F1F1"/>
<path d="M513.385 640.091L625.732 518.687L899.903 725.693L823.554 810.927L513.385 640.091Z" fill="#F1F1F1"/>
<path d="M321.5 488.5L46.5 289" stroke="#000099"/>
<path d="M336.5 467.5L64.5 278.5M82.5 265L357.5 452.5M100.5 250L366.5 431M122 236.5L384.5 413M217 278.5L235 290.254M400 398L235 290.254M64.5 327L153.5 250M82.5 342L178 265M100.5 349.5L202 278.5M122 369.5L235 290.254" stroke="#000099"/>
<path d="M143 381.5L253.5 303M159.5 398L274.5 313.5M178 408.5L297 330M193 423.5L324.5 339M209.5 436L348.5 352.5M233.5 452.5L371 363.5M253.5 467.5L397 372.5M274.5 481L404.5 387.5" stroke="#000099"/>
<path d="M531 631L830 795.5M846.5 780.5L550.5 610M864.5 764L568.5 590M879.5 747.5L591 570.5M889 729L790.5 664.663M605 543.5L790.5 664.663M790.5 646L771.75 632.646M618.5 523.5L646.582 543.5M531 655L646.582 543.5M646.582 543.5L663.5 555.549M568.5 667L663.5 555.549M663.5 555.549L684.492 570.5M591 682.5L684.492 570.5M684.492 570.5L711.872 590M618.5 703.5L711.872 590M711.872 590L731.5 603.98M646.582 714L731.5 603.98M731.5 603.98L753 619.292M663.5 729L753 619.292M753 619.292L771.75 632.646M692.5 736.5L771.75 632.646M711.872 747.5L790.5 664.663M731.5 764L818 667M753 764L846.5 682.5M771.75 780.5L864.5 703.5M790.5 795.5L879.5 714" stroke="#000099"/>
<path d="M473.944 1029.49C465.764 1042.94 446.236 1042.94 438.056 1029.49L355.022 892.909C346.514 878.915 356.588 861 372.966 861H539.034C555.412 861 565.486 878.915 556.978 892.909L473.944 1029.49Z" fill="#417C81"/>
<rect x="456" y="179" width="20" height="219" fill="#F1F1F1"/>
<rect x="601" y="498" width="20" height="219" transform="rotate(-90 601 498)" fill="#F1F1F1"/>
<rect x="555.142" y="421.999" width="20" height="219" transform="rotate(-135 555.142 421.999)" fill="#F1F1F1"/>
<path d="M428.129 563.37C428.129 564.639 427.912 565.583 427.479 566.2C427.045 566.817 426.367 567.126 425.445 567.126C424.535 567.126 423.861 566.825 423.424 566.223C422.986 565.618 422.76 564.715 422.744 563.516V562.069C422.744 560.815 422.961 559.883 423.395 559.274C423.828 558.665 424.508 558.36 425.434 558.36C426.352 558.36 427.027 558.655 427.461 559.245C427.895 559.831 428.117 560.737 428.129 561.964V563.37ZM427.045 561.887C427.045 560.969 426.916 560.301 426.658 559.883C426.4 559.462 425.992 559.251 425.434 559.251C424.879 559.251 424.475 559.46 424.221 559.878C423.967 560.296 423.836 560.938 423.828 561.805V563.54C423.828 564.462 423.961 565.143 424.227 565.585C424.496 566.022 424.902 566.241 425.445 566.241C425.98 566.241 426.377 566.034 426.635 565.62C426.896 565.206 427.033 564.553 427.045 563.663V561.887ZM429.57 559.883C429.57 559.477 429.715 559.122 430.004 558.817C430.297 558.512 430.65 558.36 431.064 558.36C431.471 558.36 431.816 558.512 432.102 558.817C432.391 559.118 432.535 559.473 432.535 559.883C432.535 560.297 432.391 560.651 432.102 560.944C431.816 561.237 431.471 561.383 431.064 561.383C430.654 561.383 430.303 561.237 430.01 560.944C429.717 560.651 429.57 560.297 429.57 559.883ZM431.064 560.633C431.275 560.633 431.453 560.565 431.598 560.428C431.742 560.288 431.814 560.106 431.814 559.883C431.814 559.657 431.742 559.471 431.598 559.327C431.453 559.178 431.275 559.104 431.064 559.104C430.85 559.104 430.668 559.182 430.52 559.339C430.375 559.491 430.303 559.672 430.303 559.883C430.303 560.094 430.375 560.272 430.52 560.417C430.668 560.561 430.85 560.633 431.064 560.633Z" fill="black"/>
</svg>
