<svg width="1878" height="1040" viewBox="0 0 1878 1040" fill="none" xmlns="http://www.w3.org/2000/svg">
<path d="M0 227C0 182.817 35.8172 147 80 147H839C883.183 147 919 182.817 919 227V800C919 844.183 883.183 880 839 880H80C35.8172 880 0 844.183 0 800V227Z" fill="#417C81"/>
<ellipse cx="467.222" cy="513.258" rx="110.742" ry="95.0259" transform="rotate(-20 467.222 513.258)" fill="#F1F1F1"/>
<rect width="46.3152" height="298.227" transform="matrix(0.6792 -0.733953 0.798069 0.602566 325.293 442.385)" fill="#F1F1F1"/>
<path d="M33.8765 299.978L123.915 229.526L420.394 385.58L308.047 506.984L33.8765 299.978Z" fill="#F1F1F1"/>
<path d="M513.385 640.091L625.732 518.687L899.903 725.693L823.554 810.927L513.385 640.091Z" fill="#F1F1F1"/>
<path d="M321.5 488.5L46.5 289" stroke="#000099"/>
<path d="M336.5 467.5L64.5 278.5M82.5 265L357.5 452.5M100.5 250L366.5 431M122 236.5L384.5 413M217 278.5L235 290.254M400 398L235 290.254M64.5 327L153.5 250M82.5 342L178 265M100.5 349.5L202 278.5M122 369.5L235 290.254" stroke="#000099"/>
<path d="M143 381.5L253.5 303M159.5 398L274.5 313.5M178 408.5L297 330M193 423.5L324.5 339M209.5 436L348.5 352.5M233.5 452.5L371 363.5M253.5 467.5L397 372.5M274.5 481L404.5 387.5" stroke="#000099"/>
<path d="M531 631L830 795.5M846.5 780.5L550.5 610M864.5 764L568.5 590M879.5 747.5L591 570.5M889 729L790.5 664.663M605 543.5L790.5 664.663M790.5 646L771.75 632.646M618.5 523.5L646.582 543.5M531 655L646.582 543.5M646.582 543.5L663.5 555.549M568.5 667L663.5 555.549M663.5 555.549L684.492 570.5M591 682.5L684.492 570.5M684.492 570.5L711.872 590M618.5 703.5L711.872 590M711.872 590L731.5 603.98M646.582 714L731.5 603.98M731.5 603.98L753 619.292M663.5 729L753 619.292M753 619.292L771.75 632.646M692.5 736.5L771.75 632.646M711.872 747.5L790.5 664.663M731.5 764L818 667M753 764L846.5 682.5M771.75 780.5L864.5 703.5M790.5 795.5L879.5 714" stroke="#000099"/>
<path d="M473.944 1029.49C465.764 1042.94 446.236 1042.94 438.056 1029.49L355.022 892.909C346.514 878.915 356.588 861 372.966 861H539.034C555.412 861 565.486 878.915 556.978 892.909L473.944 1029.49Z" fill="#417C81"/>
<rect x="456" y="179" width="20" height="219" fill="#F1F1F1"/>
<rect x="601" y="498" width="20" height="219" transform="rotate(-90 601 498)" fill="#F1F1F1"/>
<rect x="555.142" y="421.999" width="20" height="219" transform="rotate(-135 555.142 421.999)" fill="#F1F1F1"/>
<path d="M428.129 563.37C428.129 564.639 427.912 565.583 427.479 566.2C427.045 566.817 426.367 567.126 425.445 567.126C424.535 567.126 423.861 566.825 423.424 566.223C422.986 565.618 422.76 564.715 422.744 563.516V562.069C422.744 560.815 422.961 559.883 423.395 559.274C423.828 558.665 424.508 558.36 425.434 558.36C426.352 558.36 427.027 558.655 427.461 559.245C427.895 559.831 428.117 560.737 428.129 561.964V563.37ZM427.045 561.887C427.045 560.969 426.916 560.301 426.658 559.883C426.4 559.462 425.992 559.251 425.434 559.251C424.879 559.251 424.475 559.46 424.221 559.878C423.967 560.296 423.836 560.938 423.828 561.805V563.54C423.828 564.462 423.961 565.143 424.227 565.585C424.496 566.022 424.902 566.241 425.445 566.241C425.98 566.241 426.377 566.034 426.635 565.62C426.896 565.206 427.033 564.553 427.045 563.663V561.887ZM429.57 559.883C429.57 559.477 429.715 559.122 430.004 558.817C430.297 558.512 430.65 558.36 431.064 558.36C431.471 558.36 431.816 558.512 432.102 558.817C432.391 559.118 432.535 559.473 432.535 559.883C432.535 560.297 432.391 560.651 432.102 560.944C431.816 561.237 431.471 561.383 431.064 561.383C430.654 561.383 430.303 561.237 430.01 560.944C429.717 560.651 429.57 560.297 429.57 559.883ZM431.064 560.633C431.275 560.633 431.453 560.565 431.598 560.428C431.742 560.288 431.814 560.106 431.814 559.883C431.814 559.657 431.742 559.471 431.598 559.327C431.453 559.178 431.275 559.104 431.064 559.104C430.85 559.104 430.668 559.182 430.52 559.339C430.375 559.491 430.303 559.672 430.303 559.883C430.303 560.094 430.375 560.272 430.52 560.417C430.668 560.561 430.85 560.633 431.064 560.633Z" fill="black"/>
<path d="M1144.2 243.3C1145.2 241.1 1146.6 239.4 1148.4 238.2C1150.4 237 1152.5 236.4 1154.7 236.4C1157.9 236.4 1160.7 237.5 1163.1 239.7C1165.7 241.7 1167 244.2 1167 247.2C1167 248.8 1166.6 250.4 1165.8 252L1079.7 443.4C1078.5 446 1076.7 448 1074.3 449.4C1071.9 450.8 1069.3 451.5 1066.5 451.5C1063.7 451.5 1061.1 450.8 1058.7 449.4C1056.3 448 1054.5 446 1053.3 443.4L967.5 252C966.9 250.4 966.6 248.9 966.6 247.5C966.6 244.3 967.9 241.7 970.5 239.7C973.1 237.5 976 236.4 979.2 236.4C984 236.4 987.5 238.7 989.7 243.3L1067.1 418.2L1144.2 243.3ZM1221.63 451.5C1218.03 451.5 1215.03 450.5 1212.63 448.5C1210.43 446.3 1209.33 443.3 1209.33 439.5V312.9C1209.33 309.1 1210.43 306.2 1212.63 304.2C1215.03 302 1218.03 300.9 1221.63 300.9C1225.23 300.9 1228.13 302 1230.33 304.2C1232.53 306.2 1233.63 309.1 1233.63 312.9V439.5C1233.63 443.5 1232.53 446.5 1230.33 448.5C1228.13 450.5 1225.23 451.5 1221.63 451.5ZM1221.63 269.4C1216.83 269.4 1212.93 268 1209.93 265.2C1206.93 262.4 1205.43 258.7 1205.43 254.1C1205.43 249.7 1206.93 246.1 1209.93 243.3C1212.93 240.5 1216.83 239.1 1221.63 239.1C1226.43 239.1 1230.33 240.5 1233.33 243.3C1236.33 246.1 1237.83 249.7 1237.83 254.1C1237.83 258.7 1236.33 262.4 1233.33 265.2C1230.33 268 1226.43 269.4 1221.63 269.4ZM1351.35 300.9C1359.75 300.3 1363.95 303.7 1363.95 311.1C1363.95 314.3 1363.05 316.9 1361.25 318.9C1359.45 320.7 1356.35 321.8 1351.95 322.2L1342.95 323.1C1329.55 324.3 1319.55 329.1 1312.95 337.5C1306.55 345.7 1303.35 355.4 1303.35 366.6V439.5C1303.35 443.5 1302.25 446.5 1300.05 448.5C1297.85 450.5 1294.95 451.5 1291.35 451.5C1287.75 451.5 1284.75 450.5 1282.35 448.5C1280.15 446.3 1279.05 443.3 1279.05 439.5V312.9C1279.05 309.1 1280.25 306.2 1282.65 304.2C1285.05 302 1287.95 300.9 1291.35 300.9C1294.55 300.9 1297.25 302 1299.45 304.2C1301.65 306.2 1302.75 309 1302.75 312.6V329.4C1306.95 320.6 1312.85 313.9 1320.45 309.3C1328.25 304.7 1337.15 302 1347.15 301.2L1351.35 300.9ZM1464.04 432.3C1471.04 432.9 1474.54 436.1 1474.54 441.9C1474.54 445.3 1473.24 447.9 1470.64 449.7C1468.24 451.3 1464.54 451.9 1459.54 451.5L1451.44 450.9C1435.44 449.7 1423.64 444.9 1416.04 436.5C1408.44 428.1 1404.64 415.4 1404.64 398.4V323.1H1384.54C1381.14 323.1 1378.44 322.3 1376.44 320.7C1374.64 318.9 1373.74 316.6 1373.74 313.8C1373.74 310.8 1374.64 308.4 1376.44 306.6C1378.44 304.8 1381.14 303.9 1384.54 303.9H1404.64V270C1404.64 266.2 1405.74 263.3 1407.94 261.3C1410.14 259.1 1413.14 258 1416.94 258C1420.54 258 1423.44 259.1 1425.64 261.3C1427.84 263.3 1428.94 266.2 1428.94 270V303.9H1462.24C1465.44 303.9 1467.94 304.8 1469.74 306.6C1471.74 308.4 1472.74 310.8 1472.74 313.8C1472.74 316.6 1471.74 318.9 1469.74 320.7C1467.94 322.3 1465.44 323.1 1462.24 323.1H1428.94V399.6C1428.94 410.6 1431.14 418.6 1435.54 423.6C1440.14 428.4 1446.94 431.1 1455.94 431.7L1464.04 432.3ZM1609.49 300.9C1613.29 300.9 1616.19 302 1618.19 304.2C1620.39 306.4 1621.49 309.3 1621.49 312.9V439.8C1621.49 443.2 1620.39 446 1618.19 448.2C1616.19 450.4 1613.29 451.5 1609.49 451.5C1605.89 451.5 1602.99 450.5 1600.79 448.5C1598.79 446.3 1597.79 443.5 1597.79 440.1V425.1C1593.19 433.9 1586.69 440.6 1578.29 445.2C1570.09 449.8 1560.79 452.1 1550.39 452.1C1532.99 452.1 1519.89 447.3 1511.09 437.7C1502.29 427.9 1497.89 413.5 1497.89 394.5V312.9C1497.89 309.3 1498.99 306.4 1501.19 304.2C1503.39 302 1506.39 300.9 1510.19 300.9C1513.99 300.9 1516.89 302 1518.89 304.2C1521.09 306.4 1522.19 309.3 1522.19 312.9V393.9C1522.19 406.9 1524.79 416.5 1529.99 422.7C1535.19 428.7 1543.39 431.7 1554.59 431.7C1567.39 431.7 1577.69 427.6 1585.49 419.4C1593.29 411 1597.19 400 1597.19 386.4V312.9C1597.19 309.3 1598.29 306.4 1600.49 304.2C1602.69 302 1605.69 300.9 1609.49 300.9ZM1726.35 300.3C1762.95 300.3 1781.25 319.5 1781.25 357.9V439.5C1781.25 443.1 1780.15 446 1777.95 448.2C1775.95 450.4 1773.15 451.5 1769.55 451.5C1765.95 451.5 1763.05 450.4 1760.85 448.2C1758.65 446 1757.55 443.1 1757.55 439.5V425.1C1753.75 433.7 1747.95 440.4 1740.15 445.2C1732.35 449.8 1723.35 452.1 1713.15 452.1C1703.75 452.1 1695.05 450.2 1687.05 446.4C1679.25 442.6 1673.05 437.3 1668.45 430.5C1663.85 423.7 1661.55 416.2 1661.55 408C1661.55 397 1664.35 388.5 1669.95 382.5C1675.55 376.3 1684.75 371.9 1697.55 369.3C1710.35 366.5 1728.15 365.1 1750.95 365.1H1757.55V355.2C1757.55 343.2 1755.05 334.4 1750.05 328.8C1745.25 323.2 1737.35 320.4 1726.35 320.4C1712.75 320.4 1698.95 324.1 1684.95 331.5C1679.55 334.9 1675.75 336.6 1673.55 336.6C1671.15 336.6 1669.15 335.7 1667.55 333.9C1665.95 332.1 1665.15 329.8 1665.15 327C1665.15 324.2 1665.95 321.8 1667.55 319.8C1669.35 317.6 1672.15 315.4 1675.95 313.2C1682.95 309.2 1690.85 306.1 1699.65 303.9C1708.65 301.5 1717.55 300.3 1726.35 300.3ZM1716.45 432.9C1728.45 432.9 1738.25 428.9 1745.85 420.9C1753.65 412.7 1757.55 402.2 1757.55 389.4V380.7H1752.15C1734.55 380.7 1721.15 381.5 1711.95 383.1C1702.75 384.5 1696.15 387 1692.15 390.6C1688.35 394 1686.45 399.1 1686.45 405.9C1686.45 413.7 1689.25 420.2 1694.85 425.4C1700.65 430.4 1707.85 432.9 1716.45 432.9ZM1838.03 451.5C1834.43 451.5 1831.43 450.5 1829.03 448.5C1826.83 446.3 1825.73 443.3 1825.73 439.5V249C1825.73 245.2 1826.83 242.3 1829.03 240.3C1831.43 238.1 1834.43 237 1838.03 237C1841.43 237 1844.23 238.1 1846.43 240.3C1848.83 242.3 1850.03 245.2 1850.03 249V439.5C1850.03 443.3 1848.83 446.3 1846.43 448.5C1844.23 450.5 1841.43 451.5 1838.03 451.5ZM1052.7 860.5C1048.9 860.5 1045.8 859.4 1043.4 857.2C1041.2 854.8 1040.1 851.7 1040.1 847.9V668.5H975.6C972 668.5 969.2 667.6 967.2 665.8C965.2 664 964.2 661.4 964.2 658C964.2 654.6 965.2 652 967.2 650.2C969.2 648.4 972 647.5 975.6 647.5H1129.5C1133.1 647.5 1135.9 648.4 1137.9 650.2C1139.9 652 1140.9 654.6 1140.9 658C1140.9 661.4 1139.9 664 1137.9 665.8C1135.9 667.6 1133.1 668.5 1129.5 668.5H1065V847.9C1065 851.7 1063.9 854.8 1061.7 857.2C1059.5 859.4 1056.5 860.5 1052.7 860.5ZM1214.25 709.9C1222.65 709.3 1226.85 712.7 1226.85 720.1C1226.85 723.3 1225.95 725.9 1224.15 727.9C1222.35 729.7 1219.25 730.8 1214.85 731.2L1205.85 732.1C1192.45 733.3 1182.45 738.1 1175.85 746.5C1169.45 754.7 1166.25 764.4 1166.25 775.6V848.5C1166.25 852.5 1165.15 855.5 1162.95 857.5C1160.75 859.5 1157.85 860.5 1154.25 860.5C1150.65 860.5 1147.65 859.5 1145.25 857.5C1143.05 855.3 1141.95 852.3 1141.95 848.5V721.9C1141.95 718.1 1143.15 715.2 1145.55 713.2C1147.95 711 1150.85 709.9 1154.25 709.9C1157.45 709.9 1160.15 711 1162.35 713.2C1164.55 715.2 1165.65 718 1165.65 721.6V738.4C1169.85 729.6 1175.75 722.9 1183.35 718.3C1191.15 713.7 1200.05 711 1210.05 710.2L1214.25 709.9ZM1306.24 709.3C1342.84 709.3 1361.14 728.5 1361.14 766.9V848.5C1361.14 852.1 1360.04 855 1357.84 857.2C1355.84 859.4 1353.04 860.5 1349.44 860.5C1345.84 860.5 1342.94 859.4 1340.74 857.2C1338.54 855 1337.44 852.1 1337.44 848.5V834.1C1333.64 842.7 1327.84 849.4 1320.04 854.2C1312.24 858.8 1303.24 861.1 1293.04 861.1C1283.64 861.1 1274.94 859.2 1266.94 855.4C1259.14 851.6 1252.94 846.3 1248.34 839.5C1243.74 832.7 1241.44 825.2 1241.44 817C1241.44 806 1244.24 797.5 1249.84 791.5C1255.44 785.3 1264.64 780.9 1277.44 778.3C1290.24 775.5 1308.04 774.1 1330.84 774.1H1337.44V764.2C1337.44 752.2 1334.94 743.4 1329.94 737.8C1325.14 732.2 1317.24 729.4 1306.24 729.4C1292.64 729.4 1278.84 733.1 1264.84 740.5C1259.44 743.9 1255.64 745.6 1253.44 745.6C1251.04 745.6 1249.04 744.7 1247.44 742.9C1245.84 741.1 1245.04 738.8 1245.04 736C1245.04 733.2 1245.84 730.8 1247.44 728.8C1249.24 726.6 1252.04 724.4 1255.84 722.2C1262.84 718.2 1270.74 715.1 1279.54 712.9C1288.54 710.5 1297.44 709.3 1306.24 709.3ZM1296.34 841.9C1308.34 841.9 1318.14 837.9 1325.74 829.9C1333.54 821.7 1337.44 811.2 1337.44 798.4V789.7H1332.04C1314.44 789.7 1301.04 790.5 1291.84 792.1C1282.64 793.5 1276.04 796 1272.04 799.6C1268.24 803 1266.34 808.1 1266.34 814.9C1266.34 822.7 1269.14 829.2 1274.74 834.4C1280.54 839.4 1287.74 841.9 1296.34 841.9ZM1510.92 717.4C1513.12 712.6 1516.62 710.2 1521.42 710.2C1524.42 710.2 1527.12 711.2 1529.52 713.2C1531.92 715.2 1533.12 717.7 1533.12 720.7C1533.12 722.5 1532.72 724.1 1531.92 725.5L1473.42 851.5C1472.22 854.1 1470.42 856.2 1468.02 857.8C1465.62 859.2 1463.02 859.9 1460.22 859.9C1457.62 859.9 1455.12 859.2 1452.72 857.8C1450.32 856.2 1448.42 854.1 1447.02 851.5L1388.82 725.5C1388.02 724.1 1387.62 722.6 1387.62 721C1387.62 718 1388.92 715.4 1391.52 713.2C1394.32 711 1397.32 709.9 1400.52 709.9C1402.52 709.9 1404.42 710.5 1406.22 711.7C1408.22 712.9 1409.72 714.6 1410.72 716.8L1460.82 829.3L1510.92 717.4ZM1671.06 825.1C1673.26 825.1 1675.16 826 1676.76 827.8C1678.36 829.6 1679.16 831.9 1679.16 834.7C1679.16 839.7 1675.66 844.3 1668.66 848.5C1661.46 852.7 1653.86 855.9 1645.86 858.1C1637.86 860.1 1630.06 861.1 1622.46 861.1C1599.86 861.1 1581.96 854.4 1568.76 841C1555.76 827.6 1549.26 809.1 1549.26 785.5C1549.26 770.5 1552.16 757.3 1557.96 745.9C1563.76 734.3 1571.86 725.3 1582.26 718.9C1592.86 712.5 1604.86 709.3 1618.26 709.3C1637.26 709.3 1652.36 715.5 1663.56 727.9C1674.76 740.3 1680.36 757.1 1680.36 778.3C1680.36 782.3 1679.56 785.2 1677.96 787C1676.36 788.8 1673.76 789.7 1670.16 789.7H1573.56C1575.36 824.1 1591.66 841.3 1622.46 841.3C1630.26 841.3 1636.96 840.3 1642.56 838.3C1648.16 836.1 1654.16 833.2 1660.56 829.6C1665.76 826.6 1669.26 825.1 1671.06 825.1ZM1618.56 728.2C1605.76 728.2 1595.46 732.2 1587.66 740.2C1580.06 748.2 1575.56 759.5 1574.16 774.1H1659.06C1658.66 759.3 1654.96 748 1647.96 740.2C1640.96 732.2 1631.16 728.2 1618.56 728.2ZM1728.46 860.5C1724.86 860.5 1721.86 859.5 1719.46 857.5C1717.26 855.3 1716.16 852.3 1716.16 848.5V658C1716.16 654.2 1717.26 651.3 1719.46 649.3C1721.86 647.1 1724.86 646 1728.46 646C1731.86 646 1734.66 647.1 1736.86 649.3C1739.26 651.3 1740.46 654.2 1740.46 658V848.5C1740.46 852.3 1739.26 855.3 1736.86 857.5C1734.66 859.5 1731.86 860.5 1728.46 860.5Z" fill="#F1F1F1"/>
</svg>
